<?xml version="1.0" encoding="UTF-8"?>
<svg version="1.1" xmlns="http://www.w3.org/2000/svg" width="448" height="84">
<path d="M0 0 C147.84 0 295.68 0 448 0 C448 27.72 448 55.44 448 84 C300.16 84 152.32 84 0 84 C0 56.28 0 28.56 0 0 Z " fill="#343434" transform="translate(0,0)"/>
<path d="M0 0 C5.424375 -0.0825 10.84875 -0.165 16.4375 -0.25 C18.97715454 -0.30462402 18.97715454 -0.30462402 21.56811523 -0.36035156 C36.51091266 -0.54829628 36.51091266 -0.54829628 43 4 C46.44183595 7.52578317 47.25239509 10.27113056 47.4375 15.0625 C47.19039885 20.93997729 45.09777926 23.97109098 41 28 C41.48210937 28.39832031 41.96421875 28.79664062 42.4609375 29.20703125 C43.09257812 29.73683594 43.72421875 30.26664063 44.375 30.8125 C45.00148438 31.33457031 45.62796875 31.85664062 46.2734375 32.39453125 C48.68213534 34.63429327 49.90931398 36.35565198 50.37109375 39.63671875 C50.50314709 45.70340462 50.14220626 50.10817342 46.875 55.28125 C41.33938403 60.35556464 35.42329991 61.58766669 28.125 61.390625 C27.04605469 61.38458252 27.04605469 61.38458252 25.9453125 61.37841797 C23.29660992 61.35772498 20.64827525 61.30188195 18 61.25 C12.06 61.1675 6.12 61.085 0 61 C0 40.87 0 20.74 0 0 Z " fill="#F7F7F7" transform="translate(325,12)"/>
<path d="M0 0 C4.29 0 8.58 0 13 0 C16.24092334 6.12174409 18.82637949 12.01602763 20.8125 18.65234375 C21.84069651 21.55091088 23.0018563 24.24463071 24.29296875 27.03125 C27.24938837 33.43646394 29.79581001 39.97436487 32.3125 46.5625 C32.76689453 47.73619141 33.22128906 48.90988281 33.68945312 50.11914062 C34.11806641 51.23611328 34.54667969 52.35308594 34.98828125 53.50390625 C35.56896362 55.01706421 35.56896362 55.01706421 36.16137695 56.56079102 C37 59 37 59 37 61 C32.71 61 28.42 61 24 61 C22.35 56.71 20.7 52.42 19 48 C11.08 48 3.16 48 -5 48 C-6.32 52.29 -7.64 56.58 -9 61 C-13.62 61 -18.24 61 -23 61 C-20.9400286 54.69432827 -18.71935305 48.47964089 -16.34765625 42.28515625 C-16.00625107 41.38937363 -15.66484589 40.493591 -15.31309509 39.57066345 C-14.59543995 37.68877919 -13.87688602 35.80723746 -13.1574707 33.92602539 C-12.06709576 31.07451865 -10.97959962 28.2219272 -9.89257812 25.36914062 C-9.19027327 23.5285813 -8.48780469 21.68808444 -7.78515625 19.84765625 C-7.46523209 19.00880386 -7.14530792 18.16995148 -6.81568909 17.30567932 C-4.5996042 11.5141157 -2.31390174 5.75319968 0 0 Z " fill="#F6F6F6" transform="translate(402,12)"/>
<path d="M0 0 C2.0625 0.4375 2.0625 0.4375 4 1 C4 2.65 4 4.3 4 6 C3.34 6 2.68 6 2 6 C2 10.95 2 15.9 2 21 C4.64 21 7.28 21 10 21 C9.505 17.04 9.505 17.04 9 13 C9.99 13 10.98 13 12 13 C12 12.01 12 11.02 12 10 C10.02 10.99 10.02 10.99 8 12 C8.33 11.01 8.66 10.02 9 9 C11.475 9.495 11.475 9.495 14 10 C13.34 13.63 12.68 17.26 12 21 C13.65 21 15.3 21 17 21 C18.8125 22.25 18.8125 22.25 20 24 C20 25.32 20 26.64 20 28 C21.60875 27.7525 21.60875 27.7525 23.25 27.5 C27 27 27 27 31 27 C31.495 28.98 31.495 28.98 32 31 C27.74433453 32.16063604 24.3164922 31.76173392 20 31 C20 33.31 20 35.62 20 38 C25.28 38 30.56 38 36 38 C36 38.66 36 39.32 36 40 C36.66 40 37.32 40 38 40 C38 39.01 38 38.02 38 37 C37.34 36.67 36.68 36.34 36 36 C37.98 36.495 37.98 36.495 40 37 C39.67 38.65 39.34 40.3 39 42 C38.24976562 41.76990234 38.24976562 41.76990234 37.484375 41.53515625 C34.09672234 40.80542604 30.70038481 40.63643523 27.25 40.4375 C26.20392578 40.37272461 26.20392578 40.37272461 25.13671875 40.30664062 C23.42468078 40.20110404 21.71236439 40.1001009 20 40 C20 42.31 20 44.62 20 47 C25.55053286 46.25640327 25.55053286 46.25640327 31 45 C31.495 47.475 31.495 47.475 32 50 C30.68 50.33 29.36 50.66 28 51 C28.66 50.67 29.32 50.34 30 50 C30 49.01 30 48.02 30 47 C29.34 47 28.68 47 28 47 C28 47.66 28 48.32 28 49 C25.03 49 22.06 49 19 49 C19.04125 49.94875 19.0825 50.8975 19.125 51.875 C19 55 19 55 17 57 C14.375 57.125 14.375 57.125 12 57 C12.74359673 62.55053286 12.74359673 62.55053286 14 68 C12.02 68.99 12.02 68.99 10 70 C9.01 69.01 9.01 69.01 8 68 C8.2421875 65.3984375 8.2421875 65.3984375 8.875 62.375 C9.07867187 61.37210938 9.28234375 60.36921875 9.4921875 59.3359375 C9.65976562 58.56507812 9.82734375 57.79421875 10 57 C7.36 57 4.72 57 2 57 C2 61.95 2 66.9 2 72 C2.66 72 3.32 72 4 72 C4 73.65 4 75.3 4 77 C2.02 77.495 2.02 77.495 0 78 C-0.33 76.68 -0.66 75.36 -1 74 C-0.67 74.66 -0.34 75.32 0 76 C0.99 76 1.98 76 3 76 C3 75.01 3 74.02 3 73 C2.01 72.67 1.02 72.34 0 72 C0.33 67.05 0.66 62.1 1 57 C-1.64 57 -4.28 57 -7 57 C-6.25640327 62.55053286 -6.25640327 62.55053286 -5 68 C-7.475 68.495 -7.475 68.495 -10 69 C-10.5625 67.0625 -10.5625 67.0625 -11 65 C-10.67 64.67 -10.34 64.34 -10 64 C-9.63239269 61.67182036 -9.29758419 59.3381615 -9 57 C-9.763125 57.0825 -10.52625 57.165 -11.3125 57.25 C-14 57 -14 57 -15.8125 55.1875 C-17 53 -17 53 -17 50 C-22.445 50.495 -22.445 50.495 -28 51 C-28.33 49.35 -28.66 47.7 -29 46 C-27.0625 45.4375 -27.0625 45.4375 -25 45 C-24.67 45.33 -24.34 45.66 -24 46 C-21.67182036 46.36760731 -19.3381615 46.70241581 -17 47 C-17 44.69 -17 42.38 -17 40 C-19.41700987 40.14129287 -21.83350429 40.28786487 -24.25 40.4375 C-24.93191406 40.47681641 -25.61382812 40.51613281 -26.31640625 40.55664062 C-29.64448041 40.76666472 -32.80255402 41.01934002 -36 42 C-36.33 40.35 -36.66 38.7 -37 37 C-35.34385343 36.61781233 -33.67542976 36.28604898 -32 36 C-31.67 36.33 -31.34 36.66 -31 37 C-28.65012738 37.23527773 -26.29443961 37.41386417 -23.9375 37.5625 C-22.64714844 37.64628906 -21.35679688 37.73007812 -20.02734375 37.81640625 C-18.52880859 37.90728516 -18.52880859 37.90728516 -17 38 C-17 35.69 -17 33.38 -17 31 C-20.63 31.33 -24.26 31.66 -28 32 C-28.33 30.68 -28.66 29.36 -29 28 C-27.34385343 27.61781233 -25.67542976 27.28604898 -24 27 C-23.67 27.33 -23.34 27.66 -23 28 C-21.00041636 28.04080783 -18.99954746 28.04254356 -17 28 C-16.690625 27.030625 -16.38125 26.06125 -16.0625 25.0625 C-15 22 -15 22 -14 21 C-12.33382885 20.95936168 -10.66611905 20.957279 -9 21 C-9.60127409 16.29415446 -9.60127409 16.29415446 -10.6875 11.6875 C-10.790625 11.130625 -10.89375 10.57375 -11 10 C-10.34 9.34 -9.68 8.68 -9 8 C-8.01 8 -7.02 8 -6 8 C-5.61781233 9.65614657 -5.28604898 11.32457024 -5 13 C-5.33 13.33 -5.66 13.66 -6 14 C-6.36760731 16.32817964 -6.70241581 18.6618385 -7 21 C-4.36 21 -1.72 21 1 21 C1 16.05 1 11.1 1 6 C0.01 5.67 -0.98 5.34 -2 5 C-1.125 1.125 -1.125 1.125 0 0 Z " fill="#323232" transform="translate(44,6)"/>
<path d="M0 0 C4.70081252 2.47781146 8.20275176 6.04391469 11.0625 10.5 C12 14 12 14 12.0625 16.5 C7.9428623 17.79243536 4.39418317 18.76252625 0.0625 18.5 C-0.35 17.55125 -0.7625 16.6025 -1.1875 15.625 C-3.05125853 12.29685976 -3.52510081 11.77292649 -6.9375 10.5 C-12.17491459 9.75848825 -16.50130609 9.51261669 -20.9375 12.5625 C-26.29486717 20.43113303 -26.88447494 27.00920673 -25.9375 36.5 C-24.77907977 41.32052291 -23.33467711 45.14274224 -19.75 48.625 C-14.73393425 50.18555379 -10.08994193 50.26531269 -5.125 48.5 C-1.94690416 45.59431238 -0.6765943 42.42906489 1.0625 38.5 C4.6925 39.16 8.3225 39.82 12.0625 40.5 C13.0625 43.5 13.0625 43.5 12.2421875 45.5859375 C8.00318538 53.02322865 3.75482271 58.45074487 -4.76171875 61.05859375 C-11.88057458 62.50281405 -18.96026007 62.3897414 -25.26953125 58.6171875 C-25.81996094 58.24851563 -26.37039062 57.87984375 -26.9375 57.5 C-27.80375 56.96375 -28.67 56.4275 -29.5625 55.875 C-37.72889789 47.70860211 -39.22448976 39.19304107 -39.2565918 28.09643555 C-39.12757569 20.32300696 -37.38818918 13.45101223 -32.6875 7.125 C-23.75085992 -1.40542917 -11.93380126 -4.67870965 0 0 Z " fill="#F6F6F6" transform="translate(130.9375,12.5)"/>
<path d="M0 0 C3.3 0 6.6 0 10 0 C10 12.87 10 25.74 10 39 C12.31 39 14.62 39 17 39 C17 41.97 17 44.94 17 48 C14.69 48 12.38 48 10 48 C10 52.29 10 56.58 10 61 C6.37 61 2.74 61 -1 61 C-1 57.04 -1 53.08 -1 49 C-9.25 49 -17.5 49 -26 49 C-26 39.09463613 -25.8376861 36.1328513 -20.56640625 28.8671875 C-20.0138768 28.06386993 -19.46134735 27.26055237 -18.89207458 26.43289185 C-17.13901656 23.89627294 -15.35179948 21.3861452 -13.5625 18.875 C-12.36421349 17.15265551 -11.16822572 15.42870929 -9.97460938 13.703125 C-1.50664123 1.50664123 -1.50664123 1.50664123 0 0 Z " fill="#F7F7F7" transform="translate(300,12)"/>
<path d="M0 0 C1.18529297 -0.03673828 1.18529297 -0.03673828 2.39453125 -0.07421875 C7.7920022 -0.1011612 10.87605889 0.7602292 15.125 4.375 C18.53106155 7.894563 18.52770112 10.79035533 18.6015625 15.58984375 C18.61714203 16.28259903 18.63272156 16.97535431 18.64877319 17.68910217 C18.69615961 19.8968899 18.72399079 22.10436599 18.75 24.3125 C18.78663054 26.51683903 18.82740966 28.72100718 18.87265015 30.92518616 C18.91210085 32.92776718 18.93999552 34.93056595 18.96728516 36.93334961 C19.05129132 40.66088609 19.05129132 40.66088609 20.125 45.375 C16.495 45.375 12.865 45.375 9.125 45.375 C8.795 44.055 8.465 42.735 8.125 41.375 C7.19880859 41.91640625 7.19880859 41.91640625 6.25390625 42.46875 C0.52216089 45.60943239 -4.29464272 47.74905928 -10.875 46.375 C-14.86403113 44.30661349 -17.48514099 42.15780541 -19.875 38.375 C-20.66814969 34.36959406 -20.75001953 30.24559732 -18.99609375 26.49609375 C-14.21936621 20.20594758 -6.29351247 18.54422207 1.125 17.375 C4.6875 17.25 4.6875 17.25 7.125 17.375 C6.15723902 13.57952079 6.15723902 13.57952079 4.125 10.375 C2.09353943 10.09827953 2.09353943 10.09827953 -0.25 10.0625 C-1.04148438 10.02511719 -1.83296875 9.98773438 -2.6484375 9.94921875 C-5.0649353 10.14404953 -5.0649353 10.14404953 -6.30859375 12.41015625 C-6.82550781 13.05855469 -7.34242188 13.70695312 -7.875 14.375 C-10.57421875 14.546875 -10.57421875 14.546875 -13.5625 14.125 C-14.55636719 13.99609375 -15.55023438 13.8671875 -16.57421875 13.734375 C-17.33347656 13.61578125 -18.09273437 13.4971875 -18.875 13.375 C-18.11219929 8.43775143 -16.34845336 6.01000933 -12.875 2.375 C-9.00020819 -0.39270844 -4.57226706 0.00738654 0 0 Z " fill="#F4F4F4" transform="translate(221.875,27.625)"/>
<path d="M0 0 C3 2 3 2 3.6875 4.125 C3.790625 4.74375 3.89375 5.3625 4 6 C4.66386719 5.67257813 5.32773438 5.34515625 6.01171875 5.0078125 C9.66487912 3.77576626 13.01055042 3.78040604 16.8125 3.875 C17.85180664 3.88853516 17.85180664 3.88853516 18.91210938 3.90234375 C20.60822395 3.92573843 22.30415871 3.96160359 24 4 C24 6.31 24 8.62 24 11 C16.57142857 11.14285714 16.57142857 11.14285714 13 10 C13 11.32 13 12.64 13 14 C16.63 14 20.26 14 24 14 C24.391875 14.969375 24.78375 15.93875 25.1875 16.9375 C26.67594887 20.22176391 26.67594887 20.22176391 29.6875 20.875 C30.450625 20.91625 31.21375 20.9575 32 21 C32.14285714 28.42857143 32.14285714 28.42857143 31 32 C32.32 32 33.64 32 35 32 C34.7525 31.2265625 34.7525 31.2265625 34.5 30.4375 C33.84951 27.26636124 33.9379266 24.22781666 34 21 C36.64 21 39.28 21 42 21 C42 25.95 42 30.9 42 36 C42.99 36.495 42.99 36.495 44 37 C44 37.99 44 38.98 44 40 C43.01 40.33 42.02 40.66 41 41 C41 41.33 41 41.66 41 42 C26.48 42 11.96 42 -3 42 C-3.061875 35.44125 -3.12375 28.8825 -3.1875 22.125 C-3.21481201 20.05492676 -3.24212402 17.98485352 -3.27026367 15.85205078 C-3.27902314 14.2164773 -3.28666835 12.5808973 -3.29296875 10.9453125 C-3.30831665 10.09187256 -3.32366455 9.23843262 -3.33947754 8.35913086 C-3.34057617 5.89892578 -3.34057617 5.89892578 -3 2 C-2.01 1.34 -1.02 0.68 0 0 Z " fill="#343434" transform="translate(3,42)"/>
<path d="M0 0 C3.63 0 7.26 0 11 0 C11 6.93 11 13.86 11 21 C13.64 19.35 16.28 17.7 19 16 C23.70372994 14.98729894 27.86729258 15.6014548 32.375 17.1875 C35.39055862 19.26967143 37.02483523 20.89650292 39 24 C39.342908 26.99343932 39.46916655 29.6012261 39.390625 32.58203125 C39.38496521 33.39621017 39.37930542 34.2103891 39.37347412 35.04924011 C39.35116774 37.63760353 39.30098445 40.2245584 39.25 42.8125 C39.22992747 44.57224556 39.21167802 46.33201293 39.1953125 48.09179688 C39.15132207 52.39507005 39.08233627 56.6972966 39 61 C35.37 61 31.74 61 28 61 C27.98018066 60.04633545 27.96036133 59.0926709 27.93994141 58.11010742 C27.86384986 54.57077701 27.77513839 51.03185583 27.68261719 47.49291992 C27.64434202 45.96142661 27.60948651 44.42984385 27.578125 42.89819336 C27.53244193 40.6961267 27.47445463 38.49467504 27.4140625 36.29296875 C27.40251129 35.60849167 27.39096008 34.92401459 27.37905884 34.21879578 C27.26726256 30.61539163 27.05605447 29.0840817 25 26 C22.90157631 25.52277528 22.90157631 25.52277528 20.5625 25.625 C19.78003906 25.61726563 18.99757812 25.60953125 18.19140625 25.6015625 C15.49873688 26.09113875 14.64973447 26.85080463 13 29 C11.8992924 32.3021228 11.79372928 34.94083279 11.68359375 38.41796875 C11.64169922 39.67158203 11.59980469 40.92519531 11.55664062 42.21679688 C11.51732422 43.52712891 11.47800781 44.83746094 11.4375 46.1875 C11.39429008 47.52279978 11.350675 48.85808652 11.30664062 50.19335938 C11.20043498 53.46213297 11.09839003 56.73098333 11 60 C7.37 60 3.74 60 0 60 C0 40.2 0 20.4 0 0 Z " fill="#FBFBFB" transform="translate(154,12)"/>
<path d="M0 0 C2.0625 0.4375 2.0625 0.4375 4 1 C4 2.65 4 4.3 4 6 C3.34 6 2.68 6 2 6 C2 10.95 2 15.9 2 21 C4.64 21 7.28 21 10 21 C9.505 17.04 9.505 17.04 9 13 C9.99 13 10.98 13 12 13 C12 12.01 12 11.02 12 10 C10.02 10.99 10.02 10.99 8 12 C8.33 11.01 8.66 10.02 9 9 C11.475 9.495 11.475 9.495 14 10 C13.34 13.63 12.68 17.26 12 21 C13.65 21 15.3 21 17 21 C18.8125 22.25 18.8125 22.25 20 24 C20 25.32 20 26.64 20 28 C21.60875 27.7525 21.60875 27.7525 23.25 27.5 C27 27 27 27 31 27 C31.495 28.98 31.495 28.98 32 31 C27.74433453 32.16063604 24.3164922 31.76173392 20 31 C20 33.31 20 35.62 20 38 C25.28 38 30.56 38 36 38 C36 38.66 36 39.32 36 40 C36.66 40 37.32 40 38 40 C38 39.01 38 38.02 38 37 C37.34 36.67 36.68 36.34 36 36 C37.98 36.495 37.98 36.495 40 37 C39.67 38.65 39.34 40.3 39 42 C38.24976562 41.76990234 38.24976562 41.76990234 37.484375 41.53515625 C34.09672234 40.80542604 30.70038481 40.63643523 27.25 40.4375 C26.20392578 40.37272461 26.20392578 40.37272461 25.13671875 40.30664062 C23.42468078 40.20110404 21.71236439 40.1001009 20 40 C20 42.31 20 44.62 20 47 C25.55053286 46.25640327 25.55053286 46.25640327 31 45 C31.495 47.475 31.495 47.475 32 50 C30.68 50.33 29.36 50.66 28 51 C28.66 50.67 29.32 50.34 30 50 C30 49.01 30 48.02 30 47 C29.34 47 28.68 47 28 47 C28 47.66 28 48.32 28 49 C25.03 49 22.06 49 19 49 C19.04125 49.94875 19.0825 50.8975 19.125 51.875 C19 55 19 55 17 57 C14.375 57.125 14.375 57.125 12 57 C12.74359673 62.55053286 12.74359673 62.55053286 14 68 C12.02 68.99 12.02 68.99 10 70 C9.01 69.01 9.01 69.01 8 68 C8.2421875 65.3984375 8.2421875 65.3984375 8.875 62.375 C9.07867187 61.37210938 9.28234375 60.36921875 9.4921875 59.3359375 C9.65976562 58.56507812 9.82734375 57.79421875 10 57 C7.36 57 4.72 57 2 57 C2 61.95 2 66.9 2 72 C2.66 72 3.32 72 4 72 C4 73.65 4 75.3 4 77 C2.02 77.495 2.02 77.495 0 78 C-0.33 76.68 -0.66 75.36 -1 74 C-0.67 74.66 -0.34 75.32 0 76 C0.99 76 1.98 76 3 76 C3 75.01 3 74.02 3 73 C2.01 72.67 1.02 72.34 0 72 C0.33 67.05 0.66 62.1 1 57 C-1.64 57 -4.28 57 -7 57 C-6.25640327 62.55053286 -6.25640327 62.55053286 -5 68 C-7.475 68.495 -7.475 68.495 -10 69 C-10.5625 67.0625 -10.5625 67.0625 -11 65 C-10.67 64.67 -10.34 64.34 -10 64 C-9.63239269 61.67182036 -9.29758419 59.3381615 -9 57 C-9.763125 57.0825 -10.52625 57.165 -11.3125 57.25 C-14 57 -14 57 -15.8125 55.1875 C-17 53 -17 53 -17 50 C-22.445 50.495 -22.445 50.495 -28 51 C-28.33 49.35 -28.66 47.7 -29 46 C-27.0625 45.4375 -27.0625 45.4375 -25 45 C-24.67 45.33 -24.34 45.66 -24 46 C-21.67182036 46.36760731 -19.3381615 46.70241581 -17 47 C-17 44.69 -17 42.38 -17 40 C-19.41700987 40.14129287 -21.83350429 40.28786487 -24.25 40.4375 C-24.93191406 40.47681641 -25.61382812 40.51613281 -26.31640625 40.55664062 C-29.64448041 40.76666472 -32.80255402 41.01934002 -36 42 C-36.33 40.35 -36.66 38.7 -37 37 C-35.34385343 36.61781233 -33.67542976 36.28604898 -32 36 C-31.67 36.33 -31.34 36.66 -31 37 C-28.65012738 37.23527773 -26.29443961 37.41386417 -23.9375 37.5625 C-22.64714844 37.64628906 -21.35679688 37.73007812 -20.02734375 37.81640625 C-18.52880859 37.90728516 -18.52880859 37.90728516 -17 38 C-17 35.69 -17 33.38 -17 31 C-20.63 31.33 -24.26 31.66 -28 32 C-28.33 30.68 -28.66 29.36 -29 28 C-27.34385343 27.61781233 -25.67542976 27.28604898 -24 27 C-23.67 27.33 -23.34 27.66 -23 28 C-21.00041636 28.04080783 -18.99954746 28.04254356 -17 28 C-16.690625 27.030625 -16.38125 26.06125 -16.0625 25.0625 C-15 22 -15 22 -14 21 C-12.33382885 20.95936168 -10.66611905 20.957279 -9 21 C-9.60127409 16.29415446 -9.60127409 16.29415446 -10.6875 11.6875 C-10.790625 11.130625 -10.89375 10.57375 -11 10 C-10.34 9.34 -9.68 8.68 -9 8 C-8.01 8 -7.02 8 -6 8 C-5.61781233 9.65614657 -5.28604898 11.32457024 -5 13 C-5.33 13.33 -5.66 13.66 -6 14 C-6.36760731 16.32817964 -6.70241581 18.6618385 -7 21 C-4.36 21 -1.72 21 1 21 C1 16.05 1 11.1 1 6 C0.01 5.67 -0.98 5.34 -2 5 C-1.125 1.125 -1.125 1.125 0 0 Z M-15 24 C-15.21789186 28.11577589 -15.18579188 32.23464923 -15.18530273 36.35571289 C-15.18748734 38.42550264 -15.20563491 40.49475793 -15.22460938 42.56445312 C-15.22654297 43.86189453 -15.22847656 45.15933594 -15.23046875 46.49609375 C-15.23663208 48.29324829 -15.23663208 48.29324829 -15.24291992 50.12670898 C-15.3001158 53.12990015 -15.3001158 53.12990015 -13 55 C-10.57402049 55.27787668 -10.57402049 55.27787668 -7.7734375 55.1953125 C-6.7421875 55.18886719 -5.7109375 55.18242188 -4.6484375 55.17578125 C-3.56820312 55.15902344 -2.48796875 55.14226563 -1.375 55.125 C0.25695312 55.11146484 0.25695312 55.11146484 1.921875 55.09765625 C4.61480152 55.07403409 7.30729255 55.04109556 10 55 C9.34 53.35 8.68 51.7 8 50 C9.65 50.33 11.3 50.66 13 51 C12.67 52.32 12.34 53.64 12 55 C15.29075996 54.62095792 15.29075996 54.62095792 18 53 C18.09996094 50.95117803 18.13080946 48.89891431 18.1328125 46.84765625 C18.13410156 45.59662109 18.13539062 44.34558594 18.13671875 43.05664062 C18.13285156 41.73857422 18.12898438 40.42050781 18.125 39.0625 C18.12886719 37.74830078 18.13273437 36.43410156 18.13671875 35.08007812 C18.13478516 33.2015918 18.13478516 33.2015918 18.1328125 31.28515625 C18.13112061 29.55084351 18.13112061 29.55084351 18.12939453 27.78149414 C18.19022637 25.04281369 18.19022637 25.04281369 17 23 C12.60343827 22.97534496 8.2069128 22.95716158 3.81030273 22.94506836 C2.31355082 22.94002879 0.81680384 22.93319713 -0.67993164 22.92456055 C-2.82699807 22.91247841 -4.97399962 22.90676809 -7.12109375 22.90234375 C-8.4145874 22.89710693 -9.70808105 22.89187012 -11.04077148 22.88647461 C-13.88652404 22.66003068 -13.88652404 22.66003068 -15 24 Z M9 30 C9.99 30 10.98 30 12 30 C12.33 36.27 12.66 42.54 13 49 C11.35 49 9.7 49 8 49 C7.97316013 46.02077407 7.95323963 43.04178705 7.9375 40.0625 C7.92912109 39.21236328 7.92074219 38.36222656 7.91210938 37.48632812 C7.90888672 36.67744141 7.90566406 35.86855469 7.90234375 35.03515625 C7.89710693 34.2862915 7.89187012 33.53742676 7.88647461 32.76586914 C8 31 8 31 9 30 Z " fill="#CECECE" transform="translate(44,6)"/>
<path d="M0 0 C0 4.95 0 9.9 0 15 C2.64 15 5.28 15 8 15 C8 17.97 8 20.94 8 24 C5.36 24 2.72 24 0 24 C0.33 32.25 0.66 40.5 1 49 C3.31 49 5.62 49 8 49 C8.33 51.97 8.66 54.94 9 58 C4.10092832 60.44953584 0.38963317 60.70755314 -5 60 C-9.15322902 57.66380867 -10.56685465 55.45048027 -12 51 C-12.22705078 47.95385742 -12.22705078 47.95385742 -12.1953125 44.60546875 C-12.18886719 43.40341797 -12.18242187 42.20136719 -12.17578125 40.96289062 C-12.15902344 39.71701172 -12.14226562 38.47113281 -12.125 37.1875 C-12.11597656 35.92228516 -12.10695312 34.65707031 -12.09765625 33.35351562 C-12.07412394 30.23548436 -12.04124545 27.11783903 -12 24 C-13.65 24 -15.3 24 -17 24 C-17 21.03 -17 18.06 -17 15 C-15.02 15 -13.04 15 -11 15 C-11.10441406 14.41992188 -11.20882812 13.83984375 -11.31640625 13.2421875 C-11.59233091 10.58805504 -11.63878761 8.60168463 -11 6 C-8.08945495 3.08945495 -4.26456089 0 0 0 Z " fill="#F4F4F4" transform="translate(263,14)"/>
<path d="M0 0 C2.660625 -0.061875 5.32125 -0.12375 8.0625 -0.1875 C8.8862915 -0.21481201 9.71008301 -0.24212402 10.55883789 -0.27026367 C15.79270079 -0.32855001 19.38558453 0.47823664 24 3 C26.35048538 6.52572807 26.66397817 7.85013645 26 12 C23.3361184 14.99140802 21.62250497 16.72567957 17.63183594 17.40039062 C14.94629379 17.49142595 12.30903313 17.43693806 9.625 17.3125 C8.69816406 17.28994141 7.77132813 17.26738281 6.81640625 17.24414062 C4.54356867 17.18556234 2.27156925 17.09589176 0 17 C0 11.39 0 5.78 0 0 Z " fill="#3F3F3F" transform="translate(337,46)"/>
<path d="M0 0 C2.0625 0.4375 2.0625 0.4375 4 1 C4 2.65 4 4.3 4 6 C3.34 6 2.68 6 2 6 C2 10.95 2 15.9 2 21 C4.64 21 7.28 21 10 21 C9.67 18.36 9.34 15.72 9 13 C9.99 13 10.98 13 12 13 C12 12.01 12 11.02 12 10 C10.02 10.99 10.02 10.99 8 12 C8.33 11.01 8.66 10.02 9 9 C11.475 9.495 11.475 9.495 14 10 C13.34 13.63 12.68 17.26 12 21 C13.65 21 15.3 21 17 21 C18.8125 22.25 18.8125 22.25 20 24 C20 25.32 20 26.64 20 28 C21.60875 27.7525 21.60875 27.7525 23.25 27.5 C27 27 27 27 31 27 C31.495 28.98 31.495 28.98 32 31 C27.74433453 32.16063604 24.3164922 31.76173392 20 31 C20 33.31 20 35.62 20 38 C25.28 38 30.56 38 36 38 C36 38.66 36 39.32 36 40 C36.66 40 37.32 40 38 40 C38 39.01 38 38.02 38 37 C37.01 36.505 37.01 36.505 36 36 C37.32 36.33 38.64 36.66 40 37 C39.67 38.65 39.34 40.3 39 42 C38.24976562 41.76990234 38.24976562 41.76990234 37.484375 41.53515625 C34.09672234 40.80542604 30.70038481 40.63643523 27.25 40.4375 C26.20392578 40.37272461 26.20392578 40.37272461 25.13671875 40.30664062 C23.42468078 40.20110404 21.71236439 40.1001009 20 40 C20 42.31 20 44.62 20 47 C25.55053286 46.25640327 25.55053286 46.25640327 31 45 C31.495 47.475 31.495 47.475 32 50 C30.02 50.495 30.02 50.495 28 51 C28.66 50.67 29.32 50.34 30 50 C30 49.01 30 48.02 30 47 C29.34 47 28.68 47 28 47 C28 47.66 28 48.32 28 49 C25.03 49 22.06 49 19 49 C19 50.65 19 52.3 19 54 C18.67 54 18.34 54 18 54 C17.97494385 53.13197754 17.9498877 52.26395508 17.92407227 51.36962891 C17.82900516 48.15286837 17.72976797 44.93627151 17.62768555 41.71972656 C17.58434154 40.3268741 17.54266604 38.93396869 17.50268555 37.54101562 C17.44497068 35.54023349 17.38078131 33.53964141 17.31640625 31.5390625 C17.27974854 30.33459473 17.24309082 29.13012695 17.20532227 27.88916016 C17.18947013 25.06003633 17.18947013 25.06003633 16 23 C2.14 22.505 2.14 22.505 -12 22 C-11.01 21.67 -10.02 21.34 -9 21 C-9.60127409 16.29415446 -9.60127409 16.29415446 -10.6875 11.6875 C-10.790625 11.130625 -10.89375 10.57375 -11 10 C-10.34 9.34 -9.68 8.68 -9 8 C-8.01 8 -7.02 8 -6 8 C-5.61781233 9.65614657 -5.28604898 11.32457024 -5 13 C-5.33 13.33 -5.66 13.66 -6 14 C-6.36760731 16.32817964 -6.70241581 18.6618385 -7 21 C-4.36 21 -1.72 21 1 21 C1 16.05 1 11.1 1 6 C0.01 5.67 -0.98 5.34 -2 5 C-1.125 1.125 -1.125 1.125 0 0 Z " fill="#CDCDCD" transform="translate(44,6)"/>
<path d="M0 0 C3.06398451 -0.13530844 6.12197126 -0.2342407 9.1875 -0.3125 C10.05181641 -0.35439453 10.91613281 -0.39628906 11.80664062 -0.43945312 C16.36013112 -0.52668474 18.35454471 -0.48246972 22.109375 2.32421875 C24 5 24 5 24.0625 8.125 C22.78762737 11.57465534 22.24242916 12.30158472 19 14 C15.74176561 14.36542358 12.52328577 14.28178223 9.25 14.1875 C8.36183594 14.17396484 7.47367187 14.16042969 6.55859375 14.14648438 C4.372135 14.11121891 2.18598928 14.05741412 0 14 C0 9.38 0 4.76 0 0 Z " fill="#3C3C3C" transform="translate(337,22)"/>
<path d="M0 0 C0.33 0 0.66 0 1 0 C1.33 6.93 1.66 13.86 2 21 C2.66 20.34 3.32 19.68 4 19 C4.66 20.32 5.32 21.64 6 23 C6.25394531 22.35933594 6.50789063 21.71867187 6.76953125 21.05859375 C8.77932166 16.00777217 10.83252429 10.98519412 13 6 C13.99 6 14.98 6 16 6 C16.83698386 8.45714547 17.66972424 10.91558857 18.5 13.375 C18.73847656 14.07367188 18.97695313 14.77234375 19.22265625 15.4921875 C21 20.7734375 21 20.7734375 21 23 C19.35 23 17.7 23 16 23 C15.87625 24.134375 15.7525 25.26875 15.625 26.4375 C15.41875 27.613125 15.2125 28.78875 15 30 C12.39820337 31.30089831 10.4030812 31.16840078 7.5 31.1875 C6.5203125 31.20167969 5.540625 31.21585938 4.53125 31.23046875 C2 31 2 31 0 29 C-0.22705078 26.11083984 -0.22705078 26.11083984 -0.1953125 22.4609375 C-0.18564453 20.50800781 -0.18564453 20.50800781 -0.17578125 18.515625 C-0.15906929 17.13541405 -0.14213939 15.75520571 -0.125 14.375 C-0.11497006 12.98698548 -0.10584423 11.59896411 -0.09765625 10.2109375 C-0.07401863 6.80711974 -0.04106867 3.40364494 0 0 Z " fill="#3B3B3B" transform="translate(29,30)"/>
<path d="M0 0 C2.30561401 2.08764039 3.53561616 3.80863384 4.60546875 6.72265625 C4.86650391 7.42583984 5.12753906 8.12902344 5.39648438 8.85351562 C5.65751953 9.58248047 5.91855469 10.31144531 6.1875 11.0625 C6.46013672 11.79533203 6.73277344 12.52816406 7.01367188 13.28320312 C9 18.70453477 9 18.70453477 9 21 C3.72 21 -1.56 21 -7 21 C-6.27669568 16.66017411 -5.56180741 13.3920123 -4.0625 9.375 C-3.55396484 7.99441406 -3.55396484 7.99441406 -3.03515625 6.5859375 C-2.12720262 4.31776654 -1.13228669 2.163023 0 0 Z " fill="#3C3C3C" transform="translate(408,28)"/>
<path d="M0 0 C0.60150376 7.09774436 0.60150376 7.09774436 -2 11 C-6.11955831 13.74637221 -8.11554047 13.63025284 -13 13 C-15.0625 11.8125 -15.0625 11.8125 -16 10 C-15.86106382 7.22127646 -15.4800442 5.59637393 -13.7265625 3.41796875 C-11.65549577 1.71707005 -10.11753235 1.32291881 -7.5 0.8125 C-6.7265625 0.65394531 -5.953125 0.49539062 -5.15625 0.33203125 C-3 0 -3 0 0 0 Z " fill="#3C3C3C" transform="translate(229,52)"/>
<path d="M0 0 C0.33 0 0.66 0 1 0 C1 6.93 1 13.86 1 21 C-3.62 21 -8.24 21 -13 21 C-10.76357111 16.52714223 -8.15219974 12.44196913 -5.4375 8.25 C-4.93025391 7.45722656 -4.42300781 6.66445313 -3.90039062 5.84765625 C-3.41634766 5.09871094 -2.93230469 4.34976563 -2.43359375 3.578125 C-1.99072021 2.89137695 -1.54784668 2.20462891 -1.09155273 1.49707031 C-0.73134033 1.00303711 -0.37112793 0.50900391 0 0 Z " fill="#353535" transform="translate(298,30)"/>
<path d="M0 0 C2.0625 0.4375 2.0625 0.4375 4 1 C4 2.65 4 4.3 4 6 C3.34 6 2.68 6 2 6 C2 10.95 2 15.9 2 21 C4.64 21 7.28 21 10 21 C9.67 18.36 9.34 15.72 9 13 C9.99 13 10.98 13 12 13 C12 12.01 12 11.02 12 10 C10.02 10.99 10.02 10.99 8 12 C8.33 11.01 8.66 10.02 9 9 C11.475 9.495 11.475 9.495 14 10 C13.34 13.63 12.68 17.26 12 21 C13.65 21 15.3 21 17 21 C17.66 21.99 18.32 22.98 19 24 C18.34 24.33 17.68 24.66 17 25 C16.67 24.34 16.34 23.68 16 23 C2.14 22.505 2.14 22.505 -12 22 C-11.01 21.67 -10.02 21.34 -9 21 C-9.60127409 16.29415446 -9.60127409 16.29415446 -10.6875 11.6875 C-10.790625 11.130625 -10.89375 10.57375 -11 10 C-10.34 9.34 -9.68 8.68 -9 8 C-8.01 8 -7.02 8 -6 8 C-5.61781233 9.65614657 -5.28604898 11.32457024 -5 13 C-5.33 13.33 -5.66 13.66 -6 14 C-6.36760731 16.32817964 -6.70241581 18.6618385 -7 21 C-4.36 21 -1.72 21 1 21 C1 16.05 1 11.1 1 6 C0.01 5.67 -0.98 5.34 -2 5 C-1.125 1.125 -1.125 1.125 0 0 Z " fill="#F0F0F0" transform="translate(44,6)"/>
<path d="M0 0 C2.97 0.495 2.97 0.495 6 1 C6 5.95 6 10.9 6 16 C3.36 16 0.72 16 -2 16 C-2.07419487 12.14186658 -2.11112389 8.70374632 -1 5 C-0.65939189 3.33480481 -0.32441604 1.66842534 0 0 Z " fill="#313131" transform="translate(39,11)"/>
<path d="M0 0 C0.99 0 1.98 0 3 0 C3.83698386 2.45714547 4.66972424 4.91558857 5.5 7.375 C5.73847656 8.07367188 5.97695313 8.77234375 6.22265625 9.4921875 C8 14.7734375 8 14.7734375 8 17 C7.01 17 6.02 17 5 17 C4.67 15.68 4.34 14.36 4 13 C1.03 12.505 1.03 12.505 -2 12 C-2.33 13.65 -2.66 15.3 -3 17 C-3.99 16.67 -4.98 16.34 -6 16 C-5.19110952 13.51960151 -4.37808099 11.04069788 -3.5625 8.5625 C-3.33240234 7.85544922 -3.10230469 7.14839844 -2.86523438 6.41992188 C-1.11328125 1.11328125 -1.11328125 1.11328125 0 0 Z " fill="#DBDBDB" transform="translate(42,36)"/>
<path d="M0 0 C0.99 0 1.98 0 3 0 C3.33 6.27 3.66 12.54 4 19 C2.35 19 0.7 19 -1 19 C-1.02683987 16.02077407 -1.04676037 13.04178705 -1.0625 10.0625 C-1.07087891 9.21236328 -1.07925781 8.36222656 -1.08789062 7.48632812 C-1.09111328 6.67744141 -1.09433594 5.86855469 -1.09765625 5.03515625 C-1.10289307 4.2862915 -1.10812988 3.53742676 -1.11352539 2.76586914 C-1 1 -1 1 0 0 Z M1 19 C1.33 19.66 1.66 20.32 2 21 C2.66 21 3.32 21 4 21 C3.67 22.32 3.34 23.64 3 25 C2.01 24.67 1.02 24.34 0 24 C-0.6875 21.9375 -0.6875 21.9375 -1 20 C-0.34 19.67 0.32 19.34 1 19 Z " fill="#888888" transform="translate(53,36)"/>
<path d="M0 0 C4.95 0 9.9 0 15 0 C14.67 5.28 14.34 10.56 14 16 C14.66 16 15.32 16 16 16 C16 17.65 16 19.3 16 21 C14.68 21.33 13.36 21.66 12 22 C11.67 20.68 11.34 19.36 11 18 C11.33 18.66 11.66 19.32 12 20 C12.99 20 13.98 20 15 20 C15 19.01 15 18.02 15 17 C14.01 16.67 13.02 16.34 12 16 C12.33 11.05 12.66 6.1 13 1 C10.36 1 7.72 1 5 1 C5.74359673 6.55053286 5.74359673 6.55053286 7 12 C5.35 12.33 3.7 12.66 2 13 C1.4375 11.0625 1.4375 11.0625 1 9 C1.33 8.67 1.66 8.34 2 8 C2.36760731 5.67182036 2.70241581 3.3381615 3 1 C2.01 0.67 1.02 0.34 0 0 Z " fill="#ECECEC" transform="translate(32,62)"/>
<path d="M0 0 C0.66 0.99 1.32 1.98 2 3 C1.34 3 0.68 3 0 3 C0.185625 3.70125 0.37125 4.4025 0.5625 5.125 C1.05156976 8.33888698 0.66231558 10.83560336 0 14 C0.66 14 1.32 14 2 14 C1.938125 12.576875 1.938125 12.576875 1.875 11.125 C2 8 2 8 4 6 C6.125 5.375 6.125 5.375 8 5 C8 5.99 8 6.98 8 8 C7.01 8.495 7.01 8.495 6 9 C6 11.31 6 13.62 6 16 C3.36 16 0.72 16 -2 16 C-2 11.05 -2 6.1 -2 1 C-1.34 0.67 -0.68 0.34 0 0 Z " fill="#424242" transform="translate(48,11)"/>
<path d="M0 0 C0.33 0 0.66 0 1 0 C1 6.93 1 13.86 1 21 C-3.62 21 -8.24 21 -13 21 C-13 20.34 -13 19.68 -13 19 C-9.04 18.67 -5.08 18.34 -1 18 C-1 14.7 -1 11.4 -1 8 C-1.66 8 -2.32 8 -3 8 C-2.45276317 4.62537285 -1.9451 2.91765 0 0 Z " fill="#585858" transform="translate(298,30)"/>
<path d="M0 0 C2.64 0 5.28 0 8 0 C8 4.95 8 9.9 8 15 C7.67 15 7.34 15 7 15 C7 10.38 7 5.76 7 1 C6.67 2.32 6.34 3.64 6 5 C5.66666667 6.33333333 5.33333333 7.66666667 5 9 C2.525 8.01 2.525 8.01 0 7 C0 4.69 0 2.38 0 0 Z " fill="#494949" transform="translate(37,63)"/>
<path d="M0 0 C0.66 0 1.32 0 2 0 C2 1.32 2 2.64 2 4 C3.0725 3.835 4.145 3.67 5.25 3.5 C9 3 9 3 13 3 C13.33 4.32 13.66 5.64 14 7 C12.34385343 7.38218767 10.67542976 7.71395102 9 8 C8.67 7.67 8.34 7.34 8 7 C5.67182036 6.63239269 3.3381615 6.29758419 1 6 C1 8.64 1 11.28 1 14 C0.67 14 0.34 14 0 14 C0 9.38 0 4.76 0 0 Z " fill="#F8F8F8" transform="translate(62,30)"/>
<path d="M0 0 C2.97 0 5.94 0 9 0 C9.144375 1.2375 9.28875 2.475 9.4375 3.75 C9.78688502 6.56504499 10.20379366 9.2701497 11 12 C9.02 12.99 9.02 12.99 7 14 C6.34 13.34 5.68 12.68 5 12 C5.2421875 9.3984375 5.2421875 9.3984375 5.875 6.375 C6.18050781 4.87066406 6.18050781 4.87066406 6.4921875 3.3359375 C6.65976562 2.56507812 6.82734375 1.79421875 7 1 C4.69 1 2.38 1 0 1 C0 0.67 0 0.34 0 0 Z " fill="#E7E7E7" transform="translate(47,62)"/>
<path d="M0 0 C0 2.31 0 4.62 0 7 C-3.96 6.67 -7.92 6.34 -12 6 C-11.01 5.67 -10.02 5.34 -9 5 C-9 4.34 -9 3.68 -9 3 C-6.53167475 -0.56535869 -4.10373579 -0.27358239 0 0 Z " fill="#2D2D2D" transform="translate(27,37)"/>
<path d="M0 0 C0.66 0 1.32 0 2 0 C2.08119503 2.24940295 2.13927819 4.49964871 2.1875 6.75 C2.22230469 8.00296875 2.25710937 9.2559375 2.29296875 10.546875 C1.98802939 14.14109357 1.45605371 15.44725126 -1 18 C-1.2475 17.38125 -1.495 16.7625 -1.75 16.125 C-3.20628639 13.64931313 -4.37812506 13.04874998 -7 12 C-5.35 11.67 -3.7 11.34 -2 11 C-2.33 9.35 -2.66 7.7 -3 6 C-2.01 6 -1.02 6 0 6 C0 4.02 0 2.04 0 0 Z " fill="#2B2B2B" transform="translate(42,64)"/>
<path d="M0 0 C6.40703902 0.48355011 6.40703902 0.48355011 8.9375 2.6875 C10.27148038 5.59086906 10.21536552 7.84130576 10 11 C9.34 11 8.68 11 8 11 C7.731875 10.401875 7.46375 9.80375 7.1875 9.1875 C5.99353652 6.98809359 4.82880993 5.68250513 3 4 C1.98131338 3.01904252 0.97648017 2.02297922 0 1 C0 0.67 0 0.34 0 0 Z " fill="#3B3B3B" transform="translate(353,47)"/>
<path d="M0 0 C1.86323318 0.25288812 3.71708432 0.57690153 5.5625 0.9375 C6.57441406 1.13214844 7.58632813 1.32679687 8.62890625 1.52734375 C9.80259766 1.76130859 9.80259766 1.76130859 11 2 C11.33 3.98 11.66 5.96 12 8 C11.67 7.01 11.34 6.02 11 5 C7.37 5.33 3.74 5.66 0 6 C-0.33 4.35 -0.66 2.7 -1 1 C-0.67 0.67 -0.34 0.34 0 0 Z " fill="#8B8B8B" transform="translate(16,51)"/>
<path d="M0 0 C0.99 0 1.98 0 3 0 C3.38218767 1.65614657 3.71395102 3.32457024 4 5 C3.67 5.33 3.34 5.66 3 6 C2.63239269 8.32817964 2.29758419 10.6618385 2 13 C1.34 13 0.68 13 0 13 C-0.144375 11.9275 -0.28875 10.855 -0.4375 9.75 C-0.87954706 6.20814728 -0.87954706 6.20814728 -1.6875 3.6875 C-1.790625 3.130625 -1.89375 2.57375 -2 2 C-1.34 1.34 -0.68 0.68 0 0 Z " fill="#CACACA" transform="translate(35,14)"/>
<path d="M0 0 C0.66 0 1.32 0 2 0 C2.66 1.65 3.32 3.3 4 5 C4.66 5 5.32 5 6 5 C6.66 7.64 7.32 10.28 8 13 C7.01 13 6.02 13 5 13 C4.67 11.02 4.34 9.04 4 7 C2.35 7 0.7 7 -1 7 C-0.67 4.69 -0.34 2.38 0 0 Z " fill="#989898" transform="translate(42,40)"/>
<path d="M0 0 C0.33 0 0.66 0 1 0 C1.33 3.63 1.66 7.26 2 11 C2.99 10.34 3.98 9.68 5 9 C6.31223496 12.93670488 5.24296256 15.12488144 4 19 C2.015625 17.484375 2.015625 17.484375 0 15 C-0.2911521 12.26317029 -0.38322418 9.96059961 -0.25 7.25 C-0.23195312 6.55261719 -0.21390625 5.85523437 -0.1953125 5.13671875 C-0.14838554 3.42388461 -0.07664605 1.71176176 0 0 Z " fill="#4E4E4E" transform="translate(46,63)"/>
<path d="M0 0 C1.32 0.33 2.64 0.66 4 1 C3.67 2.65 3.34 4.3 3 6 C-0.875 5.125 -0.875 5.125 -2 4 C-4.34987262 3.76472227 -6.70556039 3.58613583 -9.0625 3.4375 C-10.35285156 3.35371094 -11.64320312 3.26992188 -12.97265625 3.18359375 C-14.47119141 3.09271484 -14.47119141 3.09271484 -16 3 C-16 2.67 -16 2.34 -16 2 C-10.72 2 -5.44 2 0 2 C0 2.66 0 3.32 0 4 C0.66 4 1.32 4 2 4 C2 3.01 2 2.02 2 1 C1.34 0.67 0.68 0.34 0 0 Z " fill="#E4E4E4" transform="translate(80,42)"/>
<path d="M0 0 C0.33 0.99 0.66 1.98 1 3 C-0.98 3.66 -2.96 4.32 -5 5 C-5 5.66 -5 6.32 -5 7 C-8.75 8.125 -8.75 8.125 -11 7 C-11 5.68 -11 4.36 -11 3 C-10.28972656 2.95101562 -9.57945313 2.90203125 -8.84765625 2.8515625 C-7.46900391 2.73941406 -7.46900391 2.73941406 -6.0625 2.625 C-5.14597656 2.55539063 -4.22945313 2.48578125 -3.28515625 2.4140625 C-2.15400391 2.20910156 -2.15400391 2.20910156 -1 2 C-0.67 1.34 -0.34 0.68 0 0 Z " fill="#3E3E3E" transform="translate(76,35)"/>
<path d="M0 0 C2.0625 0.4375 2.0625 0.4375 4 1 C4 2.65 4 4.3 4 6 C3.01 6.33 2.02 6.66 1 7 C0.01 6.34 -0.98 5.68 -2 5 C-1.125 1.125 -1.125 1.125 0 0 Z " fill="#BEBEBE" transform="translate(44,6)"/>
<path d="M0 0 C0.33 0 0.66 0 1 0 C1 4.95 1 9.9 1 15 C-1.64 15 -4.28 15 -7 15 C-5.68 14.34 -4.36 13.68 -3 13 C-3 12.01 -3 11.02 -3 10 C-2.34 10 -1.68 10 -1 10 C-0.67 6.7 -0.34 3.4 0 0 Z " fill="#5F5F5F" transform="translate(44,12)"/>
<path d="M0 0 C0.33 1.32 0.66 2.64 1 4 C2.0725 3.835 3.145 3.67 4.25 3.5 C8 3 8 3 12 3 C12 3.99 12 4.98 12 6 C7.8725485 6 4.084979 5.54466387 0 5 C0 3.35 0 1.7 0 0 Z " fill="#9F9F9F" transform="translate(63,30)"/>
<path d="M0 0 C0.99 0.33 1.98 0.66 3 1 C2.34 2.32 1.68 3.64 1 5 C0.34 5 -0.32 5 -1 5 C-1.78375 5.515625 -2.5675 6.03125 -3.375 6.5625 C-6 8 -6 8 -8.3125 7.6875 C-8.869375 7.460625 -9.42625 7.23375 -10 7 C-3.25 3 -3.25 3 -1 3 C-0.67 2.01 -0.34 1.02 0 0 Z " fill="#434343" transform="translate(138,65)"/>
<path d="M0 0 C0.99 0.99 1.98 1.98 3 3 C1.48601545 6.78496138 0.9855604 7.0072198 -3 9 C-2.01 6.03 -1.02 3.06 0 0 Z " fill="#454545" transform="translate(408,28)"/>
<path d="M0 0 C1.65 0.33 3.3 0.66 5 1 C4.34 2.65 3.68 4.3 3 6 C1.68 5.67 0.36 5.34 -1 5 C-0.67 3.35 -0.34 1.7 0 0 Z " fill="#BBBBBB" transform="translate(8,42)"/>
<path d="M0 0 C1.65 0.33 3.3 0.66 5 1 C4.67 2.32 4.34 3.64 4 5 C2.35 4.67 0.7 4.34 -1 4 C-0.67 2.68 -0.34 1.36 0 0 Z " fill="#BFBFBF" transform="translate(34,70)"/>
<path d="M0 0 C0.33 0.66 0.66 1.32 1 2 C1.66 2 2.32 2 3 2 C3 2.66 3 3.32 3 4 C3.66 4 4.32 4 5 4 C5 4.99 5 5.98 5 7 C4.34 7 3.68 7 3 7 C3 6.34 3 5.68 3 5 C0.03 4.505 0.03 4.505 -3 4 C-2 2 -2 2 0 0 Z " fill="#4E4E4E" transform="translate(77,39)"/>
<path d="M0 0 C0 0.99 0 1.98 0 3 C-0.99 3.33 -1.98 3.66 -3 4 C-3.33 4.99 -3.66 5.98 -4 7 C-4.66 7 -5.32 7 -6 7 C-5.67 5.02 -5.34 3.04 -5 1 C-2 0 -2 0 0 0 Z " fill="#565656" transform="translate(56,16)"/>
<path d="M0 0 C1.32 0 2.64 0 4 0 C4 1.65 4 3.3 4 5 C2.68 4.34 1.36 3.68 0 3 C0 2.01 0 1.02 0 0 Z " fill="#A9A9A9" transform="translate(52,71)"/>
<path d="M0 0 C1.98 0.495 1.98 0.495 4 1 C3.01 1.33 2.02 1.66 1 2 C1 2.99 1 3.98 1 5 C1.66 5.33 2.32 5.66 3 6 C1.68 5.67 0.36 5.34 -1 5 C-0.67 3.35 -0.34 1.7 0 0 Z " fill="#D9D9D9" transform="translate(16,51)"/>
<path d="M0 0 C2.31 0 4.62 0 7 0 C6.67 0.99 6.34 1.98 6 3 C3.69 2.67 1.38 2.34 -1 2 C-0.67 1.34 -0.34 0.68 0 0 Z " fill="#393939" transform="translate(12,46)"/>
<path d="M0 0 C0.66 0.33 1.32 0.66 2 1 C1 4 1 4 -1.0625 5.1875 C-1.701875 5.455625 -2.34125 5.72375 -3 6 C-3 3 -3 3 -1.5 1.3125 C-0.7575 0.6628125 -0.7575 0.6628125 0 0 Z " fill="#464646" transform="translate(170,37)"/>
</svg>
